# xmcd
# 
# Track frame offsets:
#   150
#   13982
#   27764
#   41967
#   61519
#   78782
#   93547
#   107500
#   119671
#   138394
#   150492
#   167938
#   182734
#   200638
#   218700
# 
# Disc length: 3130 seconds
# 
# Revision: 1
# Processed by: cddbd v1.5.2PL0 Copyright (c) Steve Scherf et al.
# Submitted via: Synapstar 1.0 
# 
DISCID=ca0c380f
DTITLE=Travis, Randy - CB90027
DYEAR=1900
DGENRE=Country
TTITLE0=1982
TTITLE1=On The Other Hand
TTITLE2=Diggin' Up Bones
TTITLE3=No Place Like Home
TTITLE4=Forever And Ever, Amen
TTITLE5=I Won't Need You Anymore
TTITLE6=Old 8x10
TTITLE7=Too Gone Too Long
TTITLE8=I Told You So
TTITLE9=Honky Tonk Moon
TTITLE10=Deeper Than The Holler
TTITLE11=Is It Still Over
TTITLE12=It's Just A Matter Of Time
TTITLE13=Hard Rock Bottom Of Your Heart
TTITLE14=He Walked On Water
EXTD=MediaType: Karaoke CD+G Producer: Unknown
EXTT0=
EXTT1=
EXTT2=
EXTT3=
EXTT4=
EXTT5=
EXTT6=
EXTT7=
EXTT8=
EXTT9=
EXTT10=
EXTT11=
EXTT12=
EXTT13=
EXTT14=
PLAYORDER=
